<?xml version="1.0" encoding="UTF-8" standalone="no"?>
<!DOCTYPE svg PUBLIC "-//W3C//DTD SVG 1.1//EN" "http://www.w3.org/Graphics/SVG/1.1/DTD/svg11.dtd">
<svg width="100%" height="100%" viewBox="0 0 140 42" version="1.1" xmlns="http://www.w3.org/2000/svg" xmlns:xlink="http://www.w3.org/1999/xlink" xml:space="preserve" xmlns:serif="http://www.serif.com/" style="fill-rule:evenodd;clip-rule:evenodd;stroke-linejoin:round;stroke-miterlimit:2;">
    <g transform="matrix(0.0197361,5.79074e-34,5.79074e-34,-0.0197361,-36.8815,126.903)">
        <path d="M3205,6360C3147,6302 3130,6290 3103,6290C3072,6290 3070,6288 3070,6258C3070,6229 3047,6201 2867,6019L2665,5813L2464,5747C2353,5710 2255,5680 2245,5680C2236,5680 2221,5689 2212,5699C2202,5710 2174,5730 2148,5743C1969,5836 1789,5615 1906,5447C1977,5346 2117,5336 2205,5425C2252,5471 2270,5521 2263,5584L2259,5628L2321,5649C2380,5669 2585,5699 2595,5689C2607,5677 2535,5487 2492,5416C2473,5385 2460,5372 2450,5377C2403,5395 2341,5401 2301,5390C2255,5378 2186,5317 2170,5274C2154,5232 2158,5152 2180,5111C2198,5074 2245,5027 2272,5018C2282,5014 2283,5006 2273,4979C2246,4899 2246,4900 2278,4900C2306,4900 2308,4903 2316,4947C2325,4994 2326,4995 2371,5001C2396,5005 2430,5015 2447,5023C2487,5044 2538,5104 2546,5138C2549,5153 2553,5170 2555,5176C2561,5198 2540,5282 2520,5310L2500,5338L2541,5406C2564,5444 2589,5488 2599,5504C2608,5519 2645,5579 2682,5635C2740,5723 2757,5743 2802,5767C2831,5783 2903,5826 2962,5863L3070,5930L3072,5372L3075,4815L3215,4815L3220,5145C3225,5450 3227,5479 3247,5527C3293,5641 3374,5715 3495,5753C3592,5784 3760,5783 3840,5752C3920,5721 3972,5679 4006,5618L4035,5565L4040,5190L4045,4815L4185,4815L4185,5585L4156,5647C4080,5813 3872,5912 3634,5897C3476,5886 3359,5838 3258,5742L3220,5706L3220,6025L3345,6099C3456,6164 3493,6190 3476,6190C3470,6190 3403,6161 3307,6116C3265,6096 3228,6080 3225,6080C3222,6080 3220,6127 3220,6185C3220,6272 3217,6290 3205,6290C3186,6290 3186,6304 3205,6320C3227,6338 3291,6430 3282,6430C3278,6430 3243,6399 3205,6360ZM3070,6075L3070,6010L2999,5974C2960,5955 2926,5941 2923,5944C2918,5949 2964,6015 2986,6035C2992,6041 3012,6066 3030,6093C3048,6119 3065,6140 3067,6140C3069,6140 3070,6111 3070,6075ZM2750,5805C2766,5786 2754,5753 2728,5746C2702,5740 2680,5755 2680,5779C2680,5816 2726,5834 2750,5805ZM2130,5703C2207,5672 2244,5557 2198,5491C2159,5434 2126,5416 2066,5416C1998,5417 1955,5446 1928,5507C1893,5587 1933,5676 2016,5705C2065,5722 2086,5721 2130,5703ZM2425,5329C2479,5301 2498,5277 2505,5226C2519,5134 2452,5050 2364,5050C2241,5050 2169,5163 2225,5270C2265,5347 2345,5371 2425,5329Z" style="fill-rule:nonzero;"/>
        <path d="M5058,5884C4908,5857 4796,5803 4694,5708C4560,5583 4502,5427 4530,5270C4590,4931 5002,4718 5410,4815C5503,4837 5625,4901 5697,4965L5759,5021L5762,4918L5765,4815L5905,4815L5905,5875L5835,5875L5765,5875L5762,5772L5759,5668L5715,5709C5546,5864 5304,5929 5058,5884ZM5400,5754C5582,5700 5709,5579 5747,5425C5823,5118 5468,4848 5090,4924C4918,4959 4777,5057 4714,5185C4688,5239 4685,5255 4685,5345C4685,5435 4688,5451 4714,5505C4773,5624 4918,5731 5060,5759C5090,5765 5124,5772 5135,5774C5174,5784 5346,5770 5400,5754Z" style="fill-rule:nonzero;"/>
        <path d="M8148,5884C7998,5857 7882,5802 7788,5712C7719,5646 7677,5584 7650,5506C7547,5207 7733,4914 8086,4818C8150,4801 8194,4797 8315,4797C8487,4797 8572,4814 8698,4876C8769,4911 8890,5011 8890,5035C8890,5042 8863,5059 8830,5073L8770,5099L8722,5051C8670,4999 8578,4951 8490,4929C8410,4909 8211,4912 8130,4934C8047,4957 7960,5003 7901,5056C7852,5100 7797,5191 7785,5247L7778,5280L8367,5282L8955,5285L8958,5338C8960,5367 8954,5418 8945,5453C8866,5770 8527,5953 8148,5884ZM8491,5751C8647,5702 8775,5571 8797,5437L8803,5400L8290,5400L7778,5400L7784,5433C7810,5569 7938,5696 8104,5750C8210,5784 8380,5785 8491,5751Z" style="fill-rule:nonzero;"/>
        <path d="M6205,5868C6202,5860 6324,5619 6476,5332L6753,4809L6838,4812L6922,4815L7196,5334C7347,5620 7468,5860 7466,5867C7462,5876 7439,5880 7392,5880L7324,5880L7083,5424C6951,5174 6839,4969 6835,4969C6831,4969 6720,5173 6590,5422L6352,5875L6281,5878C6229,5880 6208,5877 6205,5868Z" style="fill-rule:nonzero;"/>
        <path d="M7894,4607C7892,4600 7891,4540 7892,4475C7894,4391 7899,4355 7908,4352C7917,4349 7920,4380 7920,4484C7920,4571 7916,4620 7910,4620C7904,4620 7897,4614 7894,4607Z" style="fill-rule:nonzero;"/>
        <path d="M7794,4599C7786,4585 7805,4566 7819,4574C7825,4578 7830,4585 7830,4590C7830,4603 7801,4610 7794,4599Z" style="fill-rule:nonzero;"/>
        <path d="M8010,4585C7992,4551 8007,4539 8031,4569C8053,4596 8055,4610 8037,4610C8029,4610 8017,4599 8010,4585Z" style="fill-rule:nonzero;"/>
        <path d="M7640,4560C7640,4545 7633,4540 7615,4540C7599,4540 7590,4534 7590,4525C7590,4516 7599,4510 7615,4510C7639,4510 7640,4508 7640,4440C7640,4365 7650,4350 7704,4350C7740,4350 7737,4366 7700,4374C7670,4379 7670,4380 7670,4445L7670,4510L7700,4510C7720,4510 7730,4515 7730,4525C7730,4535 7720,4540 7700,4540C7677,4540 7670,4544 7670,4560C7670,4571 7663,4580 7655,4580C7647,4580 7640,4571 7640,4560Z" style="fill-rule:nonzero;"/>
        <path d="M8330,4561C8330,4549 8322,4540 8308,4538C8276,4533 8273,4510 8304,4510C8329,4510 8330,4508 8330,4446C8330,4401 8335,4377 8346,4366C8363,4348 8415,4344 8425,4360C8428,4366 8422,4370 8411,4370C8366,4370 8360,4379 8360,4445L8360,4509L8393,4512C8410,4514 8425,4520 8425,4525C8425,4531 8410,4536 8393,4538C8368,4540 8360,4546 8360,4561C8360,4571 8353,4580 8345,4580C8337,4580 8330,4571 8330,4561Z" style="fill-rule:nonzero;"/>
        <path d="M7184,4524C7113,4489 7112,4400 7182,4364C7220,4344 7304,4350 7328,4373C7351,4397 7337,4404 7301,4386C7285,4377 7262,4370 7250,4370C7222,4370 7174,4396 7167,4415C7161,4428 7175,4430 7260,4430C7341,4430 7360,4433 7360,4445C7360,4518 7261,4562 7184,4524ZM7279,4509C7296,4503 7315,4489 7321,4479C7330,4461 7326,4460 7246,4460C7172,4460 7161,4462 7167,4476C7170,4485 7187,4498 7204,4506C7242,4522 7240,4522 7279,4509Z" style="fill-rule:nonzero;"/>
        <path d="M7433,4531C7406,4519 7394,4484 7410,4464C7417,4456 7447,4443 7476,4434C7516,4423 7530,4414 7530,4400C7530,4368 7483,4361 7436,4385C7399,4405 7388,4394 7419,4369C7467,4330 7560,4354 7560,4406C7560,4432 7545,4442 7473,4460C7424,4472 7417,4494 7456,4512C7478,4522 7487,4521 7513,4507C7530,4496 7547,4493 7552,4498C7576,4522 7477,4549 7433,4531Z" style="fill-rule:nonzero;"/>
        <path d="M7797,4533C7793,4530 7790,4487 7790,4438C7790,4366 7793,4350 7805,4350C7817,4350 7820,4367 7820,4445C7820,4532 7815,4552 7797,4533Z" style="fill-rule:nonzero;"/>
        <path d="M8000,4445C8000,4372 8003,4349 8013,4353C8021,4355 8025,4383 8025,4445C8025,4507 8021,4535 8013,4538C8003,4541 8000,4518 8000,4445Z" style="fill-rule:nonzero;"/>
        <path d="M8123,4530C8097,4519 8084,4484 8100,4464C8107,4456 8137,4443 8166,4434C8228,4416 8241,4403 8215,4383C8191,4366 8162,4367 8126,4385C8089,4405 8078,4394 8109,4369C8150,4336 8242,4350 8253,4392C8259,4413 8229,4450 8208,4450C8201,4450 8178,4455 8158,4461C8113,4473 8108,4496 8148,4511C8169,4520 8181,4518 8204,4506C8241,4485 8262,4501 8229,4524C8204,4541 8158,4544 8123,4530Z" style="fill-rule:nonzero;"/>
        <path d="M8512,4525C8445,4496 8440,4408 8504,4369C8541,4346 8607,4344 8637,4365C8656,4378 8659,4378 8664,4365C8667,4357 8674,4350 8680,4350C8686,4350 8690,4386 8690,4445C8690,4504 8686,4540 8680,4540C8674,4540 8667,4534 8664,4526C8659,4514 8655,4514 8632,4526C8598,4544 8554,4543 8512,4525ZM8638,4494C8653,4484 8660,4470 8660,4446C8660,4400 8630,4375 8575,4375C8517,4375 8488,4401 8492,4449C8494,4479 8501,4488 8530,4503C8567,4522 8599,4519 8638,4494Z" style="fill-rule:nonzero;"/>
        <path d="M8793,4531C8766,4519 8754,4484 8770,4464C8777,4456 8807,4443 8836,4434C8876,4423 8890,4414 8890,4400C8890,4368 8843,4361 8796,4385C8761,4403 8760,4403 8760,4387C8760,4369 8803,4350 8843,4350C8886,4350 8920,4375 8920,4406C8920,4432 8905,4442 8833,4460C8784,4472 8777,4494 8816,4512C8838,4522 8847,4521 8873,4507C8890,4496 8907,4493 8912,4498C8936,4522 8837,4549 8793,4531Z" style="fill-rule:nonzero;"/>
    </g>
</svg>
